<?xml version="1.0" encoding="UTF-8"?>
<!-- Generator: visioncortex VTracer 0.6.3 -->
<svg version="1.1" xmlns="http://www.w3.org/2000/svg" width="1280" height="1280">
<path d="M0 0 C1.26 -0 2.51 -0.01 3.81 -0.01 C5.23 -0.01 6.64 -0.01 8.06 -0 C9.55 -0.01 11.05 -0.01 12.54 -0.01 C16.69 -0.02 20.83 -0.01 24.97 -0.01 C29.47 -0.01 33.96 -0.02 38.46 -0.02 C47.39 -0.03 56.32 -0.03 65.25 -0.03 C75.95 -0.03 86.64 -0.04 97.33 -0.05 C123.18 -0.06 149.03 -0.07 174.88 -0.07 C187.1 -0.08 199.33 -0.08 211.55 -0.08 C253.39 -0.1 295.22 -0.11 337.05 -0.11 C339.68 -0.11 342.31 -0.11 344.93 -0.11 C347.57 -0.11 350.2 -0.11 352.84 -0.11 C358.12 -0.11 363.41 -0.11 368.69 -0.11 C370 -0.11 371.31 -0.11 372.66 -0.11 C415.14 -0.12 457.62 -0.13 500.1 -0.16 C544.99 -0.18 589.88 -0.19 634.77 -0.2 C639.7 -0.2 644.63 -0.2 649.56 -0.2 C650.77 -0.2 651.98 -0.2 653.23 -0.2 C672.77 -0.2 692.31 -0.21 711.84 -0.22 C731.48 -0.24 751.11 -0.24 770.75 -0.23 C782.42 -0.23 794.09 -0.23 805.75 -0.25 C813.55 -0.26 821.34 -0.26 829.14 -0.25 C833.58 -0.24 838.02 -0.24 842.46 -0.25 C846.51 -0.26 850.55 -0.26 854.6 -0.25 C856.05 -0.25 857.5 -0.25 858.95 -0.26 C872.52 -0.33 884.67 2.07 897.26 7.13 C897.26 7.79 897.26 8.45 897.26 9.13 C897.98 9.23 898.71 9.33 899.45 9.44 C902.58 10.2 904.56 11.39 907.26 13.13 C909.84 14.51 909.84 14.51 912.42 15.87 C915.03 17.65 917.06 19.86 919.26 22.13 C920.11 22.95 920.96 23.78 921.83 24.63 C922.68 25.45 923.52 26.28 924.39 27.13 C925.24 27.95 926.08 28.78 926.96 29.63 C929.16 32.01 930.66 34.32 932.26 37.13 C932.92 37.79 933.58 38.45 934.26 39.13 C934.57 39.91 934.88 40.7 935.2 41.5 C936.14 44.17 936.14 44.17 937.89 46.25 C939.26 48.13 939.26 48.13 939.26 51.13 C939.92 51.13 940.58 51.13 941.26 51.13 C941.72 52.72 942.18 54.31 942.62 55.91 C943.06 57.42 943.53 58.92 944.02 60.41 C946.53 68.41 946.68 76.04 946.63 84.36 C946.64 85.89 946.64 87.42 946.65 88.95 C946.66 93.14 946.65 97.33 946.64 101.53 C946.63 106.09 946.63 110.66 946.64 115.22 C946.65 123.22 946.64 131.22 946.63 139.21 C946.62 151.1 946.62 163 946.62 174.89 C946.63 194.89 946.62 214.9 946.61 234.9 C946.6 254.71 946.59 274.51 946.59 294.32 C946.59 295.55 946.59 296.79 946.59 298.05 C946.59 303.05 946.59 308.05 946.58 313.05 C946.58 358.61 946.57 404.17 946.54 449.72 C946.52 492.76 946.51 535.8 946.5 578.83 C946.5 580.17 946.5 581.51 946.5 582.85 C946.5 587.53 946.5 592.22 946.5 596.9 C946.5 600.23 946.5 603.56 946.5 606.89 C946.5 609.55 946.5 612.21 946.5 614.87 C946.5 657.15 946.48 699.43 946.47 741.71 C946.47 754.1 946.46 766.48 946.46 778.87 C946.46 804.93 946.45 830.98 946.43 857.03 C946.43 867.81 946.42 878.59 946.42 889.37 C946.42 898.3 946.42 907.23 946.41 916.15 C946.4 920.66 946.4 925.16 946.4 929.66 C946.41 933.74 946.4 937.83 946.4 941.91 C946.39 943.39 946.39 944.87 946.4 946.35 C946.4 948.34 946.39 950.33 946.39 952.32 C946.39 953.42 946.39 954.53 946.39 955.67 C946.26 958.13 946.26 958.13 945.26 959.13 C945.01 960.39 944.77 961.64 944.51 962.94 C942.5 972.24 938.56 981.88 932.26 989.13 C931.27 989.46 930.28 989.79 929.26 990.13 C929.21 990.83 929.17 991.53 929.12 992.25 C927.95 996.19 925.47 998.43 922.57 1001.19 C922.06 1001.71 921.54 1002.22 921.01 1002.75 C917.67 1006.02 914.23 1008.64 910.26 1011.13 C909.06 1011.9 909.06 1011.9 907.84 1012.69 C899.93 1017.57 892.14 1021.01 882.98 1022.73 C881.24 1022.97 881.24 1022.97 880.26 1024.13 C878.32 1024.23 876.38 1024.25 874.43 1024.25 C872.52 1024.26 872.52 1024.26 870.56 1024.26 C869.12 1024.26 867.68 1024.26 866.24 1024.25 C864.72 1024.25 863.21 1024.26 861.69 1024.26 C857.47 1024.26 853.26 1024.26 849.05 1024.26 C844.48 1024.25 839.91 1024.26 835.35 1024.26 C827.33 1024.26 819.31 1024.26 811.29 1024.26 C799.37 1024.26 787.45 1024.26 775.52 1024.26 C754.23 1024.27 732.94 1024.27 711.65 1024.26 C693.02 1024.26 674.39 1024.26 655.76 1024.26 C653.91 1024.26 653.91 1024.26 652.03 1024.26 C647.02 1024.26 642.01 1024.26 637 1024.26 C590.66 1024.27 544.32 1024.26 497.98 1024.26 C455.5 1024.25 413.01 1024.25 370.53 1024.26 C323.61 1024.26 276.68 1024.27 229.75 1024.26 C224.76 1024.26 219.76 1024.26 214.76 1024.26 C213.53 1024.26 212.3 1024.26 211.03 1024.26 C192.41 1024.26 173.78 1024.26 155.16 1024.26 C134 1024.27 112.83 1024.27 91.67 1024.26 C79.81 1024.26 67.95 1024.26 56.09 1024.26 C48.18 1024.26 40.27 1024.26 32.37 1024.26 C27.85 1024.26 23.34 1024.25 18.82 1024.26 C14.72 1024.26 10.63 1024.26 6.53 1024.26 C5.04 1024.25 3.56 1024.25 2.08 1024.26 C0.08 1024.26 -1.91 1024.26 -3.91 1024.25 C-5.57 1024.25 -5.57 1024.25 -7.27 1024.25 C-9.74 1024.13 -9.74 1024.13 -10.74 1023.13 C-12 1022.88 -13.25 1022.63 -14.55 1022.38 C-24.29 1020.27 -32.75 1015.98 -40.74 1010.13 C-41.39 1009.68 -42.04 1009.23 -42.72 1008.76 C-53.42 1001.18 -64.03 990.63 -68.74 978.13 C-68.74 977.14 -68.74 976.15 -68.74 975.13 C-69.4 975.13 -70.06 975.13 -70.74 975.13 C-76.11 961.78 -78.19 949.06 -78.11 934.7 C-78.11 933.19 -78.12 931.68 -78.12 930.17 C-78.13 926.03 -78.12 921.9 -78.11 917.76 C-78.1 913.26 -78.11 908.75 -78.12 904.25 C-78.12 896.36 -78.12 888.47 -78.11 880.58 C-78.09 868.85 -78.09 857.11 -78.1 845.38 C-78.11 825.64 -78.1 805.91 -78.09 786.17 C-78.07 766.62 -78.06 747.08 -78.06 727.54 C-78.06 726.32 -78.06 725.11 -78.06 723.86 C-78.06 718.92 -78.06 713.99 -78.06 709.05 C-78.06 664.09 -78.04 619.13 -78.02 574.17 C-78 531.71 -77.98 489.24 -77.98 446.78 C-77.98 445.47 -77.98 444.16 -77.98 442.82 C-77.98 437.54 -77.98 432.26 -77.98 426.99 C-77.98 424.36 -77.98 421.73 -77.98 419.1 C-77.98 416.48 -77.98 413.85 -77.98 411.23 C-77.97 369.5 -77.96 327.77 -77.95 286.04 C-77.94 273.81 -77.94 261.59 -77.94 249.37 C-77.93 223.66 -77.93 197.96 -77.91 172.25 C-77.9 161.62 -77.9 150.98 -77.9 140.35 C-77.9 131.54 -77.89 122.73 -77.88 113.92 C-77.88 109.48 -77.88 105.04 -77.88 100.6 C-77.88 96.57 -77.88 92.54 -77.87 88.51 C-77.87 87.05 -77.87 85.59 -77.87 84.14 C-77.87 82.17 -77.87 80.21 -77.87 78.24 C-77.86 77.15 -77.86 76.05 -77.86 74.93 C-77.75 72.47 -77.43 70.47 -76.74 68.13 C-76.6 67.42 -76.45 66.71 -76.31 65.98 C-75.36 61.24 -73.99 57.44 -71.74 53.13 C-71.55 52.2 -71.37 51.27 -71.18 50.32 C-71.03 49.59 -70.89 48.87 -70.74 48.13 C-69.75 47.63 -69.75 47.63 -68.74 47.13 C-67.53 45.01 -66.67 42.93 -65.86 40.63 C-64.58 37.77 -62.97 36.3 -60.74 34.13 C-60.3 33.37 -59.86 32.61 -59.41 31.83 C-57.53 28.79 -55.39 26.48 -52.86 23.94 C-52.02 23.08 -51.18 22.22 -50.31 21.33 C-47.78 19.17 -45.82 18.26 -42.74 17.13 C-41.05 15.48 -39.38 13.82 -37.74 12.13 C-35.62 10.84 -33.96 10.18 -31.55 9.63 C-30.95 9.46 -30.35 9.3 -29.74 9.13 C-29.41 8.47 -29.08 7.81 -28.74 7.13 C-22.53 3.8 -16.02 2.46 -9.11 1.52 C-5.65 0.95 -3.89 0 0 0 Z M9.26 89.13 C8.96 91.72 8.96 91.72 9.01 94.81 C9.01 96.02 9 97.24 9 98.5 C9 99.86 9.01 101.23 9.01 102.6 C9.01 104.05 9.01 105.49 9.01 106.94 C9 110.95 9 114.95 9.01 118.96 C9.02 123.31 9.01 127.65 9.01 132 C9 139.63 9 147.26 9.01 154.89 C9.02 166.23 9.02 177.58 9.01 188.92 C9.01 208.01 9.01 227.09 9.02 246.17 C9.03 265.07 9.03 283.97 9.03 302.88 C9.03 304.05 9.03 305.22 9.03 306.43 C9.03 311.2 9.03 315.96 9.03 320.73 C9.03 365.46 9.04 410.2 9.06 454.94 C9.07 494.72 9.08 534.5 9.08 574.28 C9.08 576.84 9.08 579.39 9.08 581.95 C9.08 583.21 9.08 584.47 9.08 585.77 C9.08 592.13 9.08 598.49 9.08 604.84 C9.08 606.1 9.08 607.35 9.08 608.64 C9.08 641.84 9.08 675.04 9.09 708.24 C9.09 709.42 9.09 710.6 9.09 711.82 C9.09 716.57 9.09 721.31 9.09 726.06 C9.09 742.61 9.09 759.15 9.1 775.69 C9.1 797.01 9.1 818.32 9.11 839.64 C9.11 850.92 9.12 862.21 9.12 873.49 C9.11 881.01 9.12 888.54 9.12 896.06 C9.13 900.36 9.13 904.65 9.13 908.95 C9.12 912.85 9.13 916.75 9.13 920.65 C9.13 922.06 9.13 923.47 9.13 924.88 C9.13 926.78 9.13 928.68 9.14 930.57 C9.14 931.63 9.14 932.69 9.14 933.78 C9 936.09 9 936.09 10.26 937.13 C12.12 937.23 13.97 937.25 15.83 937.25 C17.05 937.25 18.27 937.26 19.52 937.26 C20.9 937.26 22.27 937.25 23.64 937.25 C25.09 937.25 26.54 937.25 27.99 937.25 C32.01 937.26 36.03 937.25 40.05 937.25 C44.41 937.25 48.76 937.25 53.12 937.25 C60.77 937.25 68.42 937.25 76.07 937.25 C87.45 937.24 98.82 937.24 110.2 937.24 C129.33 937.24 148.47 937.24 167.6 937.23 C186.55 937.23 205.51 937.22 224.46 937.22 C225.64 937.22 226.81 937.22 228.03 937.22 C234 937.22 239.98 937.22 245.96 937.22 C288.33 937.22 330.7 937.21 373.07 937.2 C414.24 937.19 455.41 937.19 496.59 937.18 C498.49 937.18 498.49 937.18 500.43 937.18 C513.17 937.18 525.9 937.18 538.64 937.18 C564.59 937.18 590.53 937.17 616.48 937.17 C617.67 937.17 618.87 937.17 620.1 937.17 C699.82 937.16 779.54 937.14 859.26 937.13 C860.6 934.46 860.38 932.44 860.38 929.45 C860.38 928.23 860.38 927.01 860.38 925.76 C860.38 924.39 860.38 923.02 860.37 921.66 C860.37 920.21 860.37 918.76 860.37 917.32 C860.37 913.31 860.36 909.3 860.36 905.3 C860.35 900.95 860.35 896.6 860.34 892.25 C860.34 884.62 860.33 877 860.32 869.37 C860.3 858.02 860.29 846.68 860.28 835.33 C860.26 815.07 860.24 794.82 860.21 774.56 C860.19 756.83 860.16 739.11 860.14 721.38 C860.14 720.2 860.14 719.03 860.14 717.82 C860.13 713.06 860.13 708.29 860.12 703.53 C860.07 658.79 860.02 614.06 859.96 569.32 C859.91 529.54 859.86 489.75 859.82 449.97 C859.77 405.32 859.72 360.66 859.67 316.01 C859.66 311.26 859.65 306.5 859.65 301.74 C859.65 300.57 859.65 299.4 859.64 298.19 C859.62 280.47 859.6 262.75 859.58 245.03 C859.56 224.89 859.54 204.76 859.51 184.62 C859.49 173.33 859.48 162.05 859.47 150.76 C859.46 143.24 859.45 135.72 859.44 128.19 C859.43 123.9 859.43 119.6 859.42 115.31 C859.42 111.41 859.42 107.51 859.41 103.61 C859.4 102.2 859.4 100.79 859.4 99.38 C859.41 97.48 859.4 95.58 859.39 93.68 C859.39 92.1 859.39 92.1 859.39 90.48 C859.53 88.17 859.53 88.17 858.26 87.13 C856.41 87.03 854.56 87 852.71 87 C850.89 87 850.89 87 849.02 86.99 C847.66 86.99 846.29 87 844.92 87 C843.47 87 842.03 87 840.58 86.99 C836.57 86.99 832.57 86.99 828.56 86.99 C824.21 86.99 819.87 86.99 815.52 86.99 C807.89 86.98 800.26 86.98 792.63 86.98 C781.29 86.98 769.94 86.98 758.6 86.97 C737.16 86.96 715.73 86.96 694.29 86.96 C677.74 86.96 661.19 86.96 644.65 86.95 C639.89 86.95 635.13 86.95 630.38 86.95 C629.2 86.95 628.01 86.95 626.8 86.95 C593.52 86.95 560.25 86.94 526.98 86.94 C525.72 86.94 524.47 86.94 523.17 86.94 C516.81 86.94 510.45 86.94 504.08 86.94 C502.82 86.94 501.55 86.94 500.25 86.94 C497.7 86.94 495.14 86.94 492.58 86.94 C452.8 86.94 413.02 86.94 373.24 86.92 C328.58 86.91 283.93 86.9 239.28 86.9 C234.52 86.9 229.77 86.9 225.01 86.9 C223.84 86.9 222.67 86.9 221.46 86.9 C202.57 86.9 183.68 86.89 164.79 86.88 C145.82 86.88 126.85 86.87 107.88 86.88 C96.6 86.88 85.32 86.88 74.03 86.87 C66.51 86.87 58.98 86.87 51.46 86.88 C47.16 86.88 42.87 86.88 38.57 86.87 C34.67 86.86 30.77 86.87 26.87 86.88 C25.46 86.88 24.05 86.88 22.64 86.87 C20.74 86.86 18.84 86.87 16.94 86.88 C15.88 86.88 14.83 86.88 13.74 86.88 C11.09 86.88 11.09 86.88 9.26 89.13 Z " fill="#38076A" transform="translate(204.73785084486008,126.87234950065613)"/>
<path d="M0 0 C0.8 -0 1.61 -0.01 2.43 -0.02 C5.1 -0.03 7.76 -0.04 10.43 -0.04 C12.28 -0.05 14.13 -0.05 15.97 -0.06 C19.85 -0.07 23.73 -0.08 27.61 -0.08 C32.58 -0.08 37.55 -0.11 42.53 -0.14 C46.35 -0.16 50.17 -0.16 53.98 -0.16 C55.82 -0.17 57.65 -0.17 59.48 -0.19 C62.05 -0.2 64.61 -0.2 67.18 -0.2 C67.93 -0.2 68.69 -0.21 69.47 -0.22 C72.68 -0.2 74.87 -0.04 77.68 1.57 C79.5 3.46 79.85 4.52 80.19 7.1 C80.31 7.85 80.42 8.6 80.54 9.37 C80.64 10.15 80.74 10.92 80.84 11.72 C81.33 17.46 81.33 17.46 84.22 22.16 C84.58 24.16 84.92 26.16 85.22 28.16 C85.55 28.49 85.88 28.82 86.22 29.16 C86.5 31.97 86.67 34.78 86.84 37.59 C86.98 40.32 86.98 40.32 89.22 42.16 C89.48 44.04 89.74 45.91 89.94 47.79 C90.25 50.4 90.67 52.96 91.15 55.54 C91.31 56.37 91.46 57.2 91.62 58.06 C92.09 60.36 92.09 60.36 94.22 62.16 C94.48 64.04 94.74 65.91 94.94 67.79 C95.25 70.4 95.67 72.96 96.15 75.54 C96.31 76.37 96.46 77.2 96.62 78.06 C97.09 80.36 97.09 80.36 99.22 82.16 C99.48 84.04 99.74 85.91 99.94 87.79 C100.25 90.4 100.67 92.96 101.15 95.54 C101.31 96.37 101.46 97.2 101.62 98.06 C102.09 100.36 102.09 100.36 104.22 102.16 C104.45 104.08 104.68 106 104.88 107.92 C105.21 110.12 105.77 111.95 106.53 114.04 C108.48 119.49 109.6 125.12 110.77 130.78 C111.61 134.76 112.57 138.41 114.22 142.16 C115.74 146.83 116.53 151.18 116.87 156.05 C117.26 158.41 118.09 160.06 119.22 162.16 C120.77 166.82 121.53 171.18 121.87 176.05 C122.26 178.41 123.09 180.06 124.22 182.16 C125.77 186.82 126.53 191.18 126.87 196.05 C127.26 198.41 128.09 200.06 129.22 202.16 C130.77 206.82 131.53 211.18 131.87 216.05 C132.26 218.41 133.09 220.06 134.22 222.16 C135.78 226.85 136.53 231.25 136.87 236.15 C137.13 238.47 137.13 238.47 139.22 241.16 C139.55 239.51 139.88 237.86 140.22 236.16 C140.88 236.16 141.54 236.16 142.22 236.16 C141.89 235.17 141.56 234.18 141.22 233.16 C141.49 231.15 141.82 229.15 142.22 227.16 C142.55 227.16 142.88 227.16 143.22 227.16 C144.71 220.51 146.12 213.89 147.22 207.16 C147.55 207.16 147.88 207.16 148.22 207.16 C149.71 200.51 151.12 193.89 152.22 187.16 C152.55 187.16 152.88 187.16 153.22 187.16 C154.71 180.51 156.12 173.89 157.22 167.16 C157.55 167.16 157.88 167.16 158.22 167.16 C159.71 160.51 161.12 153.89 162.22 147.16 C162.55 147.16 162.88 147.16 163.22 147.16 C164.71 140.51 166.12 133.89 167.22 127.16 C167.55 127.16 167.88 127.16 168.22 127.16 C169.71 120.51 171.12 113.89 172.22 107.16 C172.55 107.16 172.88 107.16 173.22 107.16 C174.71 100.51 176.12 93.89 177.22 87.16 C177.55 87.16 177.88 87.16 178.22 87.16 C179.71 80.51 181.12 73.89 182.22 67.16 C182.55 67.16 182.88 67.16 183.22 67.16 C184.71 60.51 186.12 53.89 187.22 47.16 C187.55 47.16 187.88 47.16 188.22 47.16 C189.71 40.51 191.12 33.89 192.22 27.16 C192.55 27.16 192.88 27.16 193.22 27.16 C195.16 18.67 195.16 18.67 196.65 10.1 C197.45 5.94 198.75 2.71 202.22 0.16 C204.89 -0.13 207.33 -0.24 210.01 -0.21 C210.8 -0.21 211.59 -0.22 212.41 -0.22 C215.03 -0.23 217.65 -0.22 220.27 -0.2 C222.09 -0.2 223.92 -0.2 225.74 -0.2 C229.56 -0.2 233.38 -0.19 237.2 -0.18 C242.1 -0.15 246.99 -0.15 251.89 -0.16 C255.65 -0.16 259.42 -0.16 263.18 -0.15 C264.99 -0.14 266.79 -0.14 268.59 -0.14 C271.12 -0.14 273.64 -0.13 276.17 -0.11 C277.29 -0.12 277.29 -0.12 278.42 -0.12 C282.46 -0.08 285.58 0.37 289.22 2.16 C288.62 5.95 287.94 9.71 287.22 13.47 C287.05 14.34 286.89 15.2 286.72 16.09 C286.22 18.16 286.22 18.16 285.22 19.16 C284.86 20.46 284.56 21.78 284.28 23.1 C284.02 24.3 284.02 24.3 283.76 25.53 C283.03 29.08 282.35 32.63 281.68 36.19 C281.22 38.16 281.22 38.16 280.22 39.16 C279.86 40.46 279.56 41.78 279.28 43.1 C279.02 44.3 279.02 44.3 278.76 45.53 C278.03 49.08 277.35 52.63 276.68 56.19 C276.22 58.16 276.22 58.16 275.22 59.16 C274.86 60.46 274.56 61.78 274.28 63.1 C274.02 64.3 274.02 64.3 273.76 65.53 C273.03 69.08 272.35 72.63 271.68 76.19 C271.22 78.16 271.22 78.16 270.22 79.16 C269.86 80.46 269.56 81.78 269.28 83.1 C269.02 84.3 269.02 84.3 268.76 85.53 C268.03 89.08 267.35 92.63 266.68 96.19 C266.22 98.16 266.22 98.16 265.22 99.16 C264.86 100.46 264.56 101.78 264.28 103.1 C264.02 104.3 264.02 104.3 263.76 105.53 C263.03 109.08 262.35 112.63 261.68 116.19 C261.22 118.16 261.22 118.16 260.22 119.16 C259.86 120.46 259.56 121.78 259.28 123.1 C259.02 124.3 259.02 124.3 258.76 125.53 C258.03 129.08 257.35 132.63 256.68 136.19 C256.22 138.16 256.22 138.16 255.22 139.16 C254.86 140.46 254.56 141.78 254.28 143.1 C254.11 143.9 253.93 144.7 253.76 145.53 C253.03 149.08 252.35 152.63 251.68 156.19 C251.22 158.16 251.22 158.16 250.22 159.16 C249.86 160.46 249.56 161.78 249.28 163.1 C249.11 163.9 248.93 164.7 248.76 165.53 C248.03 169.08 247.35 172.63 246.68 176.19 C246.22 178.16 246.22 178.16 245.22 179.16 C244.86 180.46 244.56 181.78 244.28 183.1 C244.11 183.9 243.93 184.7 243.76 185.53 C243.03 189.08 242.35 192.63 241.68 196.19 C241.22 198.16 241.22 198.16 240.22 199.16 C239.86 200.46 239.56 201.78 239.28 203.1 C239.11 203.9 238.93 204.7 238.76 205.53 C238.03 209.08 237.35 212.63 236.68 216.19 C236.22 218.16 236.22 218.16 235.22 219.16 C234.86 220.46 234.56 221.78 234.28 223.1 C234.11 223.9 233.93 224.7 233.76 225.53 C233.03 229.08 232.35 232.63 231.68 236.19 C231.22 238.16 231.22 238.16 230.22 239.16 C229.86 240.46 229.56 241.78 229.28 243.1 C229.11 243.9 228.93 244.7 228.76 245.53 C228.03 249.08 227.35 252.63 226.68 256.19 C226.22 258.16 226.22 258.16 225.22 259.16 C224.86 260.46 224.56 261.78 224.28 263.1 C224.02 264.3 224.02 264.3 223.76 265.53 C223.03 269.08 222.35 272.63 221.68 276.19 C221.22 278.16 221.22 278.16 220.22 279.16 C219.86 280.46 219.56 281.78 219.28 283.1 C219.02 284.3 219.02 284.3 218.76 285.53 C218.03 289.08 217.35 292.63 216.68 296.19 C216.22 298.16 216.22 298.16 215.22 299.16 C214.86 300.46 214.56 301.78 214.28 303.1 C214.02 304.3 214.02 304.3 213.76 305.53 C213.03 309.08 212.35 312.63 211.68 316.19 C211.22 318.16 211.22 318.16 210.22 319.16 C209.86 320.46 209.56 321.78 209.28 323.1 C209.02 324.3 209.02 324.3 208.76 325.53 C208.03 329.08 207.35 332.63 206.68 336.19 C206.22 338.16 206.22 338.16 205.22 339.16 C204.86 340.46 204.56 341.78 204.28 343.1 C204.02 344.3 204.02 344.3 203.76 345.53 C203.03 349.08 202.35 352.63 201.68 356.19 C201.22 358.16 201.22 358.16 200.22 359.16 C199.74 361.25 199.27 363.33 198.82 365.43 C197.57 371.1 196.1 376.73 194.65 382.35 C193.48 386.93 192.54 391.52 191.68 396.16 C191.22 398.16 191.22 398.16 190.22 399.16 C189.74 401.25 189.27 403.33 188.82 405.43 C187.94 409.4 186.94 413.34 185.94 417.28 C185.31 419.78 184.7 422.28 184.09 424.79 C183.22 428.16 183.22 428.16 182.22 430.16 C171.32 430.21 160.42 430.24 149.52 430.26 C144.45 430.28 139.39 430.29 134.33 430.31 C129.45 430.33 124.57 430.35 119.69 430.35 C117.82 430.35 115.96 430.36 114.09 430.37 C111.48 430.39 108.88 430.39 106.27 430.39 C105.49 430.4 104.72 430.4 103.92 430.41 C100.14 430.4 98.45 430.31 95.22 428.16 C94.4 425.37 93.73 422.69 93.15 419.85 C92.15 415.08 91.09 410.67 89.22 406.16 C88.84 404.55 88.51 402.92 88.22 401.29 C87.24 396.1 85.89 391.17 84.22 386.16 C83.89 384.58 83.58 383 83.28 381.41 C82.26 376.19 80.9 371.21 79.22 366.16 C78.72 363.79 78.27 361.41 77.81 359.02 C77.2 356.09 76.49 353.2 75.75 350.3 C75.21 348.15 74.71 346 74.22 343.84 C74.05 343.12 73.89 342.4 73.72 341.66 C73.38 340.19 73.05 338.72 72.72 337.25 C71.82 333.38 70.73 329.84 69.22 326.16 C68.84 324.57 68.51 322.96 68.22 321.35 C67.54 317.63 66.68 313.97 65.75 310.3 C65.22 308.15 64.71 306 64.22 303.84 C64.05 303.12 63.89 302.4 63.72 301.66 C63.38 300.19 63.05 298.72 62.72 297.25 C61.82 293.38 60.73 289.84 59.22 286.16 C58.84 284.55 58.51 282.92 58.22 281.29 C57.24 276.1 55.89 271.17 54.22 266.16 C53.89 264.58 53.58 263 53.28 261.41 C52.26 256.19 50.9 251.21 49.22 246.16 C48.89 244.58 48.58 243 48.28 241.41 C47.26 236.19 45.9 231.21 44.22 226.16 C43.89 224.58 43.58 223 43.28 221.41 C42.26 216.19 40.9 211.21 39.22 206.16 C38.89 204.58 38.58 203 38.28 201.41 C37.26 196.19 35.9 191.21 34.22 186.16 C33.89 184.58 33.58 183 33.28 181.41 C32.26 176.19 30.9 171.21 29.22 166.16 C28.89 164.58 28.58 163 28.28 161.41 C27.26 156.19 25.9 151.21 24.22 146.16 C23.72 143.79 23.27 141.41 22.81 139.02 C22.2 136.1 21.49 133.21 20.75 130.31 C19.65 125.91 18.65 121.49 17.63 117.08 C16.93 114.06 16.2 111.1 15.22 108.16 C14.89 106.86 14.58 105.56 14.28 104.25 C14.11 103.51 13.93 102.77 13.76 102 C13.4 100.44 13.04 98.88 12.68 97.32 C12.51 96.58 12.33 95.83 12.15 95.07 C12 94.39 11.84 93.71 11.68 93.01 C11.27 91.38 10.75 89.76 10.22 88.16 C9.89 86.86 9.58 85.56 9.28 84.25 C9.11 83.51 8.93 82.77 8.76 82 C8.4 80.44 8.04 78.88 7.68 77.32 C7.51 76.58 7.33 75.83 7.15 75.07 C7 74.39 6.84 73.71 6.68 73.01 C6.27 71.38 5.75 69.76 5.22 68.16 C4.89 66.86 4.58 65.56 4.28 64.25 C4.02 63.14 4.02 63.14 3.76 62 C3.22 59.66 3.22 59.66 2.68 57.32 C2.42 56.21 2.42 56.21 2.15 55.07 C2 54.39 1.84 53.71 1.68 53.01 C1.27 51.38 0.75 49.76 0.22 48.16 C-0.62 44.61 -1.44 41.06 -2.23 37.5 C-3.14 33.54 -4.23 29.92 -5.78 26.16 C-6.16 24.55 -6.49 22.92 -6.78 21.29 C-7.56 17.16 -8.6 13.19 -9.78 9.16 C-10.64 5.72 -10.93 4.59 -9.78 1.16 C-6.68 -0.39 -3.4 0 0 0 Z " fill="#38076A" transform="translate(649.78271484375,338.8388671875)"/>
<path d="M0 0 C1.15 0.12 2.29 0.24 3.48 0.37 C20.13 2.26 35.82 6.2 50.16 15.1 C52.89 16.81 52.89 16.81 55.96 18.27 C58.56 19.59 60.67 20.96 62.94 22.75 C65.22 24.52 67.37 26.04 69.88 27.5 C70.53 27.91 71.19 28.32 71.88 28.75 C71.88 29.41 71.88 30.07 71.88 30.75 C73.19 31.08 74.51 31.41 75.88 31.75 C75.88 32.41 75.88 33.07 75.88 33.75 C76.87 34.08 77.86 34.41 78.88 34.75 C78.88 35.41 78.88 36.07 78.88 36.75 C79.51 37.02 80.15 37.29 80.81 37.56 C82.88 38.75 82.88 38.75 83.88 41.75 C84.53 42.08 85.19 42.41 85.88 42.75 C88.9 45.49 90.79 48.27 92.88 51.75 C93.58 52.41 94.28 53.07 95 53.75 C97.18 56.08 97.53 57.62 97.88 60.75 C98.53 60.75 99.19 60.75 99.88 60.75 C100.11 61.28 100.34 61.82 100.57 62.37 C102.81 67.48 105.22 72.45 107.82 77.39 C108.92 79.84 109.45 82.11 109.88 84.75 C110.53 84.75 111.19 84.75 111.88 84.75 C111.95 85.69 111.95 85.69 112.02 86.65 C112.1 87.47 112.17 88.28 112.25 89.12 C112.32 89.94 112.39 90.75 112.46 91.59 C112.7 93.95 112.7 93.95 114.88 95.75 C116.88 105.75 116.88 105.75 116.88 128.75 C88.83 128.75 60.77 128.75 31.88 128.75 C30.88 122.81 30.88 122.81 29.88 116.75 C28.61 113.63 27.35 110.74 25.88 107.75 C25.5 106.76 25.13 105.77 24.75 104.75 C24.05 102.57 24.05 102.57 21.88 101.75 C20.25 100.31 20.25 100.31 18.88 98.75 C18.88 98.09 18.88 97.43 18.88 96.75 C17.95 96.48 17.02 96.21 16.06 95.94 C12.88 94.75 12.88 94.75 11.49 93.27 C9.42 91.32 7.62 90.9 4.88 90.19 C1.62 89.33 -0.27 88.65 -3.12 86.75 C-5.96 86.43 -5.96 86.43 -9.06 86.5 C-10.62 86.49 -10.62 86.49 -12.21 86.48 C-15.1 86.75 -16.63 87.38 -19.12 88.75 C-20.2 88.85 -21.27 88.96 -22.38 89.06 C-30.08 90.47 -35 95.36 -40.44 100.69 C-40.95 101.19 -41.47 101.69 -42 102.21 C-46.41 106.68 -49.07 111.26 -50.25 117.5 C-50.7 119.83 -51.06 121.62 -52.12 123.75 C-52.22 126.14 -52.26 128.49 -52.26 130.88 C-52.26 131.99 -52.26 131.99 -52.27 133.13 C-52.27 135.63 -52.27 138.13 -52.27 140.64 C-52.27 142.42 -52.28 144.21 -52.28 146 C-52.29 150.87 -52.29 155.74 -52.29 160.61 C-52.29 164.66 -52.3 168.72 -52.3 172.78 C-52.31 182.35 -52.31 191.92 -52.31 201.49 C-52.31 211.38 -52.32 221.27 -52.34 231.15 C-52.35 239.63 -52.35 248.11 -52.35 256.59 C-52.35 261.65 -52.36 266.72 -52.37 271.79 C-52.38 276.55 -52.38 281.32 -52.37 286.08 C-52.37 287.83 -52.37 289.59 -52.38 291.34 C-52.38 293.72 -52.38 296.11 -52.37 298.49 C-52.38 299.19 -52.38 299.89 -52.39 300.61 C-52.36 304.23 -52.19 305.65 -50.12 308.75 C-49.63 310.32 -49.17 311.91 -48.75 313.5 C-46.67 320.66 -43.68 325.63 -38.12 330.75 C-37.68 331.24 -37.24 331.73 -36.78 332.23 C-29.29 339.1 -17.69 340.6 -7.94 341.06 C-0.68 340.47 6.75 337.74 12.88 333.75 C13.53 332.76 14.19 331.77 14.88 330.75 C15.53 330.75 16.19 330.75 16.88 330.75 C16.88 330.09 16.88 329.43 16.88 328.75 C17.87 328.42 18.86 328.09 19.88 327.75 C19.88 327.09 19.88 326.43 19.88 325.75 C20.53 325.75 21.19 325.75 21.88 325.75 C22.21 324.76 22.53 323.77 22.88 322.75 C23.51 322.15 24.15 321.55 24.81 320.94 C29.52 315.94 30.88 306.52 30.88 299.75 C33.96 298.21 37.21 298.61 40.6 298.62 C41.79 298.62 41.79 298.62 43.01 298.62 C45.65 298.61 48.3 298.61 50.94 298.62 C52.77 298.62 54.6 298.62 56.43 298.61 C60.27 298.61 64.11 298.61 67.95 298.62 C72.88 298.63 77.81 298.62 82.74 298.62 C86.52 298.61 90.3 298.61 94.08 298.62 C95.9 298.62 97.72 298.62 99.54 298.61 C102.08 298.61 104.61 298.62 107.15 298.62 C107.91 298.62 108.67 298.62 109.44 298.61 C114.65 298.64 114.65 298.64 116.88 299.75 C116.9 303.9 116.92 308.04 116.94 312.19 C116.95 313.37 116.95 314.56 116.96 315.78 C116.97 317.46 116.97 317.46 116.97 319.18 C116.98 320.75 116.98 320.75 116.99 322.34 C116.88 324.75 116.88 324.75 115.88 325.75 C115.55 327.1 115.27 328.45 115 329.81 C114.18 333.67 113.04 337.2 111.59 340.86 C110.75 342.97 110.75 342.97 110 346.12 C108.78 350.06 107.13 353.47 105.23 357.11 C104.31 358.9 103.43 360.72 102.58 362.54 C102.16 363.44 101.74 364.33 101.31 365.25 C100.94 366.06 100.57 366.88 100.18 367.72 C98.88 369.75 98.88 369.75 96.79 370.72 C96.15 371.06 95.52 371.4 94.88 371.75 C94.79 372.47 94.71 373.18 94.62 373.92 C93.56 377.95 90.95 380.21 88.05 383.04 C87.17 383.92 87.17 383.92 86.27 384.81 C85.03 386.05 83.79 387.27 82.54 388.5 C80.64 390.36 78.75 392.25 76.86 394.13 C75.65 395.33 74.44 396.53 73.23 397.73 C72.67 398.29 72.11 398.85 71.53 399.42 C68.5 402.38 65.62 404.7 61.88 406.75 C60.88 407.43 59.89 408.11 58.88 408.81 C56.21 410.54 53.82 411.62 50.88 412.75 C50.05 413.25 49.23 413.74 48.38 414.25 C45.93 415.72 43.52 416.69 40.88 417.75 C40.11 418.25 39.35 418.74 38.56 419.25 C35.78 420.8 33.17 421.53 30.07 422.21 C27.87 422.71 27.87 422.71 25.77 423.5 C19.33 425.8 13.16 426.2 6.38 426.37 C2.72 426.49 -0.22 426.78 -3.78 427.8 C-7.33 428.81 -9.85 428.82 -13.5 428.44 C-15.06 428.29 -15.06 428.29 -16.65 428.14 C-19.12 427.75 -19.12 427.75 -20.12 426.75 C-22.8 426.54 -25.45 426.37 -28.12 426.25 C-35.99 425.89 -35.99 425.89 -37.12 424.75 C-39.12 424.52 -41.12 424.3 -43.12 424.13 C-45.13 423.75 -45.13 423.75 -48.12 421.75 C-51.2 420.91 -54.3 420.23 -57.41 419.53 C-60.12 418.75 -60.12 418.75 -62.12 416.75 C-63.44 416.2 -64.78 415.71 -66.12 415.25 C-68.87 414.32 -70.03 413.84 -72.12 411.75 C-73.33 411.29 -73.33 411.29 -74.56 410.81 C-77.17 409.73 -78.17 408.7 -80.12 406.75 C-80.99 406.42 -81.86 406.09 -82.75 405.75 C-83.53 405.42 -84.32 405.09 -85.12 404.75 C-85.62 403.26 -85.62 403.26 -86.12 401.75 C-87.89 400.74 -87.89 400.74 -90.12 399.75 C-94.64 396.96 -98.31 393.88 -102 390.12 C-102.5 389.64 -103 389.15 -103.51 388.64 C-107.12 385 -107.12 385 -107.12 382.75 C-108.12 382.42 -109.11 382.09 -110.12 381.75 C-110.45 380.1 -110.79 378.45 -111.12 376.75 C-112.12 376.42 -113.11 376.09 -114.12 375.75 C-115.91 373.39 -115.91 373.39 -117.75 370.44 C-118.36 369.47 -118.97 368.51 -119.6 367.51 C-120.9 365.17 -121.67 363.36 -122.12 360.75 C-122.79 360.75 -123.44 360.75 -124.12 360.75 C-124.6 359.6 -125.07 358.46 -125.55 357.28 C-126.18 355.75 -126.81 354.22 -127.44 352.69 C-127.75 351.94 -128.05 351.18 -128.37 350.41 C-128.68 349.66 -128.99 348.92 -129.3 348.15 C-129.61 347.4 -129.91 346.66 -130.23 345.89 C-131.02 344 -131.87 342.13 -132.73 340.27 C-134.4 336.06 -135.33 331.94 -136.19 327.5 C-136.43 326.36 -136.43 326.36 -136.67 325.19 C-139.62 310.31 -140.43 295.26 -140.38 280.13 C-140.39 278.47 -140.39 276.81 -140.39 275.14 C-140.4 270.69 -140.4 266.24 -140.39 261.79 C-140.39 257.09 -140.39 252.4 -140.4 247.7 C-140.4 239.83 -140.4 231.96 -140.39 224.08 C-140.37 215.02 -140.38 205.95 -140.39 196.89 C-140.4 189.05 -140.4 181.22 -140.39 173.39 C-140.39 168.74 -140.39 164.08 -140.4 159.42 C-140.4 155.05 -140.4 150.67 -140.39 146.29 C-140.39 144.7 -140.39 143.11 -140.39 141.51 C-140.41 132.54 -139.95 123.89 -138.61 115.01 C-137.95 110.6 -137.52 106.19 -137.12 101.75 C-136.46 101.75 -135.81 101.75 -135.12 101.75 C-135.17 100.7 -135.21 99.65 -135.25 98.56 C-135.13 94.88 -134.6 93.03 -133.12 89.75 C-132.8 88.6 -132.46 87.44 -132.12 86.25 C-131.28 83.3 -130.29 80.58 -129.12 77.75 C-128.8 76.68 -128.46 75.61 -128.12 74.5 C-127.12 71.75 -127.12 71.75 -125.12 70.75 C-124.11 68.42 -123.11 66.09 -122.12 63.75 C-121.46 63.09 -120.81 62.43 -120.12 61.75 C-119.86 61.01 -119.59 60.26 -119.31 59.5 C-117.81 56.02 -115.58 53.63 -113.12 50.75 C-112.67 49.96 -112.21 49.17 -111.74 48.35 C-110 45.54 -108.08 43.44 -105.75 41.11 C-104.91 40.26 -104.07 39.42 -103.21 38.56 C-102.33 37.69 -101.46 36.83 -100.56 35.94 C-99.69 35.05 -98.81 34.17 -97.91 33.26 C-97.07 32.43 -96.23 31.59 -95.37 30.73 C-94.6 29.97 -93.84 29.2 -93.05 28.41 C-91.12 26.75 -91.12 26.75 -89.12 26.75 C-89.12 26.09 -89.12 25.43 -89.12 24.75 C-88.36 24.48 -87.6 24.21 -86.81 23.94 C-84.15 22.95 -84.15 22.95 -82.62 21.25 C-80.67 19.3 -78.7 18.69 -76.12 17.75 C-72.96 16.46 -72.96 16.46 -71.12 13.75 C-69.03 12.85 -66.9 12.03 -64.75 11.25 C-61.19 9.96 -58.28 8.85 -55.12 6.75 C-53.02 6.14 -50.89 5.61 -48.75 5.12 C-47.63 4.86 -46.51 4.6 -45.35 4.34 C-42.51 3.82 -40 3.63 -37.12 3.75 C-37.12 3.09 -37.12 2.43 -37.12 1.75 C-36.23 1.69 -35.34 1.63 -34.42 1.57 C-32.67 1.44 -32.67 1.44 -30.88 1.31 C-29.13 1.19 -29.13 1.19 -27.36 1.07 C-24.78 0.81 -22.61 0.4 -20.12 -0.25 C-13.31 -1.74 -6.88 -0.81 0 0 Z " fill="#38076A" transform="translate(479.125,340.25)"/>
<path d="M0 0 C1.11 0 1.11 0 2.25 0 C3.53 -0.01 3.53 -0.01 4.84 -0.01 C5.79 -0.01 6.74 -0 7.72 0 C8.72 -0 9.73 -0 10.77 -0.01 C14.18 -0.01 17.59 -0.01 21 0 C23.45 0 25.9 -0 28.36 -0 C33.71 -0.01 39.07 -0.01 44.42 -0 C52.39 0.01 60.35 0.01 68.31 0 C81.71 -0 95.1 -0 108.5 0.01 C121.77 0.02 135.04 0.02 148.31 0.02 C149.13 0.02 149.96 0.02 150.81 0.02 C154.15 0.02 157.5 0.02 160.84 0.02 C192.25 0.02 223.67 0.03 255.08 0.05 C283 0.06 310.93 0.07 338.86 0.06 C340.65 0.06 342.44 0.06 344.24 0.06 C345.57 0.06 345.57 0.06 346.92 0.06 C351.39 0.06 355.85 0.06 360.31 0.06 C361.63 0.06 361.63 0.06 362.98 0.06 C386.29 0.06 409.6 0.07 432.91 0.07 C433.74 0.07 434.57 0.07 435.42 0.08 C438.76 0.08 442.09 0.08 445.42 0.08 C457.04 0.08 468.65 0.08 480.26 0.08 C495.23 0.08 510.19 0.09 525.16 0.1 C533.08 0.1 541 0.1 548.92 0.1 C554.82 0.1 560.72 0.11 566.62 0.11 C569.02 0.12 571.41 0.12 573.81 0.11 C577.05 0.11 580.29 0.12 583.53 0.12 C584.48 0.12 585.42 0.12 586.4 0.11 C587.26 0.12 588.12 0.12 589 0.12 C590.11 0.12 590.11 0.12 591.25 0.12 C593.19 0.25 593.19 0.25 596.19 1.25 C596.19 29.63 596.19 58.01 596.19 87.25 C398.85 87.25 201.51 87.25 -1.81 87.25 C-3.95 82.98 -4.1 80 -4.07 75.39 C-4.08 74.6 -4.08 73.82 -4.08 73.01 C-4.09 70.41 -4.09 67.81 -4.08 65.21 C-4.08 63.41 -4.08 61.6 -4.08 59.79 C-4.09 56.01 -4.08 52.23 -4.07 48.45 C-4.06 43.6 -4.07 38.74 -4.08 33.89 C-4.09 30.16 -4.09 26.44 -4.08 22.71 C-4.08 20.92 -4.08 19.13 -4.09 17.34 C-4.09 14.84 -4.08 12.35 -4.07 9.85 C-4.08 9.11 -4.08 8.36 -4.08 7.59 C-4.03 0.55 -4.03 0.55 0 0 Z " fill="#38076A" transform="translate(342.8131793998182,851.7501850016415)"/>
<path d="M0 0 C289.74 0 579.48 0 878 0 C878 0.33 878 0.66 878 1 C588.26 1 298.52 1 0 1 C0 0.67 0 0.34 0 0 Z " fill="#000002" transform="translate(201,1152)"/>
<path d="M0 0 C0.33 0 0.66 0 1 0 C1 289.41 1 578.82 1 877 C0.67 877 0.34 877 0 877 C0 587.59 0 298.18 0 0 Z " fill="#000002" transform="translate(1152,201)"/>
<path d="M0 0 C0.33 0 0.66 0 1 0 C1 60.06 1 120.12 1 182 C0.67 182 0.34 182 0 182 C0 121.94 0 61.88 0 0 Z " fill="#000002" transform="translate(427,464)"/>
<path d="M0 0 C26.73 0 53.46 0 81 0 C81 0.33 81 0.66 81 1 C54.27 1 27.54 1 0 1 C0 0.67 0 0.34 0 0 Z " fill="#000002" transform="translate(514,470)"/>
<path d="M0 0 C0.33 0 0.66 0 1 0 C1 5.94 1 11.88 1 18 C0.67 18 0.34 18 0 18 C0 12.06 0 6.12 0 0 Z " fill="#000002" transform="translate(597,452)"/>
<path d="M0 0 C0.33 0 0.66 0 1 0 C1 5.61 1 11.22 1 17 C0.67 17 0.34 17 0 17 C0 11.39 0 5.78 0 0 Z " fill="#000002" transform="translate(597,640)"/>
<path d="M0 0 C3.96 0 7.92 0 12 0 C12 0.33 12 0.66 12 1 C8.04 1 4.08 1 0 1 C0 0.67 0 0.34 0 0 Z " fill="#000002" transform="translate(464,427)"/>
<path d="M0 0 C3.63 0 7.26 0 11 0 C11 0.33 11 0.66 11 1 C7.37 1 3.74 1 0 1 C0 0.67 0 0.34 0 0 Z " fill="#000002" transform="translate(479,767)"/>
<path d="M0 0 C3.63 0 7.26 0 11 0 C11 0.33 11 0.66 11 1 C7.37 1 3.74 1 0 1 C0 0.67 0 0.34 0 0 Z " fill="#000002" transform="translate(448,767)"/>
<path d="M0 0 C0.33 0 0.66 0 1 0 C1 1.65 1 3.3 1 5 C0.67 5 0.34 5 0 5 C0 3.35 0 1.7 0 0 Z " fill="#000002" transform="translate(752,434)"/>
<path d="M0 0 C0.33 0 0.66 0 1 0 C1 1.65 1 3.3 1 5 C0.67 5 0.34 5 0 5 C0 3.35 0 1.7 0 0 Z " fill="#000002" transform="translate(747,414)"/>
<path d="M0 0 C0.33 0 0.66 0 1 0 C1 1.65 1 3.3 1 5 C0.67 5 0.34 5 0 5 C0 3.35 0 1.7 0 0 Z " fill="#000002" transform="translate(742,394)"/>
<path d="M0 0 C0.33 0 0.66 0 1 0 C1 1.65 1 3.3 1 5 C0.67 5 0.34 5 0 5 C0 3.35 0 1.7 0 0 Z " fill="#000002" transform="translate(737,374)"/>
<path d="M0 0 C0.33 0 0.66 0 1 0 C1 1.65 1 3.3 1 5 C0.67 5 0.34 5 0 5 C0 3.35 0 1.7 0 0 Z " fill="#000002" transform="translate(732,354)"/>
<path d="M0 0 C1 4 1 4 1 4 Z " fill="#000002" transform="translate(592,430)"/>
<path d="M0 0 C3 1 3 1 3 1 Z " fill="#000002" transform="translate(428,762)"/>
<path d="" fill="#000002" transform="translate(0,0)"/>
<path d="" fill="#000002" transform="translate(0,0)"/>
<path d="" fill="#000002" transform="translate(0,0)"/>
<path d="" fill="#000002" transform="translate(0,0)"/>
<path d="" fill="#000002" transform="translate(0,0)"/>
<path d="" fill="#000002" transform="translate(0,0)"/>
<path d="" fill="#000002" transform="translate(0,0)"/>
<path d="" fill="#000002" transform="translate(0,0)"/>
<path d="" fill="#000002" transform="translate(0,0)"/>
<path d="" fill="#000002" transform="translate(0,0)"/>
<path d="" fill="#000002" transform="translate(0,0)"/>
<path d="" fill="#000002" transform="translate(0,0)"/>
<path d="" fill="#000002" transform="translate(0,0)"/>
<path d="" fill="#000002" transform="translate(0,0)"/>
<path d="" fill="#000002" transform="translate(0,0)"/>
<path d="" fill="#000002" transform="translate(0,0)"/>
<path d="" fill="#000002" transform="translate(0,0)"/>
<path d="" fill="#000002" transform="translate(0,0)"/>
<path d="" fill="#000002" transform="translate(0,0)"/>
<path d="" fill="#000002" transform="translate(0,0)"/>
<path d="" fill="#000002" transform="translate(0,0)"/>
<path d="" fill="#000002" transform="translate(0,0)"/>
<path d="" fill="#000002" transform="translate(0,0)"/>
<path d="" fill="#000002" transform="translate(0,0)"/>
<path d="" fill="#000002" transform="translate(0,0)"/>
<path d="" fill="#000002" transform="translate(0,0)"/>
<path d="" fill="#000002" transform="translate(0,0)"/>
<path d="" fill="#000002" transform="translate(0,0)"/>
<path d="M0 0 C2 1 2 1 2 1 Z " fill="#000002" transform="translate(1086,1150)"/>
<path d="M0 0 C2 1 2 1 2 1 Z " fill="#000002" transform="translate(192,1150)"/>
<path d="M0 0 C2 1 2 1 2 1 Z " fill="#000002" transform="translate(1096,1147)"/>
<path d="M0 0 C2 1 2 1 2 1 Z " fill="#000002" transform="translate(182,1147)"/>
<path d="" fill="#000002" transform="translate(0,0)"/>
<path d="" fill="#000002" transform="translate(0,0)"/>
<path d="M0 0 C2 1 2 1 2 1 Z " fill="#000002" transform="translate(440,765)"/>
<path d="M0 0 C2 1 2 1 2 1 Z " fill="#000002" transform="translate(521,757)"/>
<path d="M0 0 C2 1 2 1 2 1 Z " fill="#000002" transform="translate(531,752)"/>
<path d="" fill="#000002" transform="translate(0,0)"/>
<path d="" fill="#000002" transform="translate(0,0)"/>
<path d="" fill="#39086B" transform="translate(0,0)"/>
<path d="" fill="#000002" transform="translate(0,0)"/>
<path d="" fill="#000002" transform="translate(0,0)"/>
<path d="" fill="#000002" transform="translate(0,0)"/>
<path d="" fill="#000002" transform="translate(0,0)"/>
<path d="" fill="#39086B" transform="translate(0,0)"/>
<path d="M0 0 C2 1 2 1 2 1 Z " fill="#000002" transform="translate(449,432)"/>
<path d="M0 0 C2 1 2 1 2 1 Z " fill="#000002" transform="translate(453,430)"/>
<path d="" fill="#000002" transform="translate(0,0)"/>
<path d="" fill="#000002" transform="translate(0,0)"/>
<path d="" fill="#39086B" transform="translate(0,0)"/>
<path d="" fill="#000002" transform="translate(0,0)"/>
<path d="" fill="#000002" transform="translate(0,0)"/>
<path d="" fill="#39086B" transform="translate(0,0)"/>
<path d="" fill="#000002" transform="translate(0,0)"/>
<path d="" fill="#39086B" transform="translate(0,0)"/>
<path d="" fill="#39086B" transform="translate(0,0)"/>
<path d="" fill="#000002" transform="translate(0,0)"/>
<path d="" fill="#000002" transform="translate(0,0)"/>
<path d="" fill="#000002" transform="translate(0,0)"/>
<path d="" fill="#000002" transform="translate(0,0)"/>
<path d="" fill="#000002" transform="translate(0,0)"/>
<path d="" fill="#000002" transform="translate(0,0)"/>
<path d="" fill="#000002" transform="translate(0,0)"/>
<path d="" fill="#000002" transform="translate(0,0)"/>
<path d="" fill="#000002" transform="translate(0,0)"/>
<path d="" fill="#000002" transform="translate(0,0)"/>
<path d="" fill="#000002" transform="translate(0,0)"/>
<path d="" fill="#000002" transform="translate(0,0)"/>
<path d="" fill="#000002" transform="translate(0,0)"/>
<path d="" fill="#000002" transform="translate(0,0)"/>
<path d="" fill="#000002" transform="translate(0,0)"/>
<path d="" fill="#000002" transform="translate(0,0)"/>
<path d="" fill="#000002" transform="translate(0,0)"/>
<path d="" fill="#000002" transform="translate(0,0)"/>
<path d="" fill="#000002" transform="translate(0,0)"/>
<path d="" fill="#000002" transform="translate(0,0)"/>
<path d="" fill="#000002" transform="translate(0,0)"/>
<path d="" fill="#39086B" transform="translate(0,0)"/>
<path d="" fill="#000002" transform="translate(0,0)"/>
<path d="" fill="#000002" transform="translate(0,0)"/>
<path d="" fill="#39086B" transform="translate(0,0)"/>
<path d="" fill="#000002" transform="translate(0,0)"/>
<path d="" fill="#000002" transform="translate(0,0)"/>
<path d="" fill="#000002" transform="translate(0,0)"/>
<path d="" fill="#000002" transform="translate(0,0)"/>
<path d="" fill="#000002" transform="translate(0,0)"/>
<path d="" fill="#000002" transform="translate(0,0)"/>
<path d="" fill="#39086B" transform="translate(0,0)"/>
<path d="" fill="#000002" transform="translate(0,0)"/>
<path d="" fill="#39086B" transform="translate(0,0)"/>
<path d="" fill="#000002" transform="translate(0,0)"/>
<path d="" fill="#39086B" transform="translate(0,0)"/>
<path d="" fill="#000002" transform="translate(0,0)"/>
<path d="" fill="#39086B" transform="translate(0,0)"/>
<path d="" fill="#000002" transform="translate(0,0)"/>
<path d="" fill="#39086B" transform="translate(0,0)"/>
<path d="" fill="#000002" transform="translate(0,0)"/>
<path d="" fill="#39086B" transform="translate(0,0)"/>
<path d="" fill="#000002" transform="translate(0,0)"/>
<path d="" fill="#000002" transform="translate(0,0)"/>
<path d="" fill="#000002" transform="translate(0,0)"/>
<path d="" fill="#000002" transform="translate(0,0)"/>
<path d="" fill="#000002" transform="translate(0,0)"/>
<path d="" fill="#000002" transform="translate(0,0)"/>
<path d="" fill="#39086B" transform="translate(0,0)"/>
<path d="" fill="#000002" transform="translate(0,0)"/>
<path d="" fill="#000002" transform="translate(0,0)"/>
<path d="" fill="#39086B" transform="translate(0,0)"/>
<path d="" fill="#39086B" transform="translate(0,0)"/>
<path d="" fill="#000002" transform="translate(0,0)"/>
<path d="" fill="#000002" transform="translate(0,0)"/>
<path d="" fill="#000002" transform="translate(0,0)"/>
<path d="" fill="#000002" transform="translate(0,0)"/>
<path d="" fill="#39086B" transform="translate(0,0)"/>
<path d="" fill="#39086B" transform="translate(0,0)"/>
<path d="" fill="#000002" transform="translate(0,0)"/>
<path d="" fill="#39086B" transform="translate(0,0)"/>
<path d="" fill="#39086B" transform="translate(0,0)"/>
<path d="" fill="#39086B" transform="translate(0,0)"/>
</svg>
